<svg height="348.546087" viewBox="0 0 286.93 348.48" width="286.906104" xmlns="http://www.w3.org/2000/svg"><path d="m68.18 22h49.78v258.79h-49.78z" fill="#fee40d"/><path d="m163.88 23.07h50.01v259.57h-50.01z" fill="#fee40d"/><path d="m116.26 12.76h52.14v315.05h-52.14z" fill="#e20730"/><g transform="translate(-.01 .02)"><path d="m212.3 32.22 63 8.37-28.09 173.87-34.91 45.79z" fill="#e20730"/><path d="m6.28 39.6 63.45-5.42v217.61l-49.66-87.16z" fill="#e20730"/><path d="m143.48 10-66.31 14.92c-36.35 8.2-66.17 15-66.34 15.08-.32.29-.53 4.06-.89 15.88a361.25 361.25 0 0 0 3.49 61.92 344.15 344.15 0 0 0 12.27 54.27 20.26 20.26 0 0 1 .88 3.25.15.15 0 0 0 0 .22s0 0 0 0a36.81 36.81 0 0 1 1.92 5.49.6.6 0 0 0 .12.39c.07.07.89 2.23 1.82 4.81a339 339 0 0 0 36.21 71.46 44.8 44.8 0 0 1 2.52 4l49 56.55 2.34 2.17c7 6.42 21.77 18.21 22.88 18.22 30-19.6 51.11-50.25 74.24-76.94a44.9 44.9 0 0 1 2.53-4 339.4 339.4 0 0 0 36.19-71.46c.94-2.58 1.76-4.74 1.83-4.81a.61.61 0 0 0 .13-.39 35.31 35.31 0 0 1 1.91-5.49.16.16 0 0 0 .09-.22 0 0 0 0 0 0 0 16.59 16.59 0 0 1 .87-3.25 345.93 345.93 0 0 0 12.28-54.23 361.24 361.24 0 0 0 3.54-61.92c-.37-11.82-.58-15.59-.9-15.88-.13-.12-30-6.92-66.35-15.12z" fill="none" stroke="#fee40d" stroke-miterlimit="10" stroke-width="19.55"/><path d="m143.48 10-66.31 14.92c-36.35 8.2-66.17 15-66.34 15.08-.32.29-.53 4.06-.89 15.88a361.25 361.25 0 0 0 3.49 61.92 344.15 344.15 0 0 0 12.27 54.27 20.26 20.26 0 0 1 .88 3.25.15.15 0 0 0 0 .22s0 0 0 0a36.81 36.81 0 0 1 1.92 5.49.6.6 0 0 0 .12.39c.07.07.89 2.23 1.82 4.81a339 339 0 0 0 36.21 71.46 44.8 44.8 0 0 1 2.52 4l49 56.55 2.34 2.17c7 6.42 21.77 18.21 22.88 18.22s15.91-11.8 22.88-18.22c17.63-19 34.36-39.11 51.36-58.72a44.9 44.9 0 0 1 2.53-4 338.92 338.92 0 0 0 36.19-71.46c.94-2.58 1.76-4.74 1.83-4.81a.61.61 0 0 0 .13-.39 35.31 35.31 0 0 1 1.91-5.49.16.16 0 0 0 .09-.22 0 0 0 0 0 0 0 16.59 16.59 0 0 1 .87-3.25 345.93 345.93 0 0 0 12.28-54.23 361.24 361.24 0 0 0 3.54-61.92c-.37-11.82-.58-15.59-.9-15.88-.13-.12-30-6.92-66.35-15.12z" fill="none" stroke="#000" stroke-miterlimit="10" stroke-width="10.86"/><path d="m125.3 167.42a99.84 99.84 0 0 1 0-10.81 11.69 11.69 0 0 0 .16-2.71v-2.72h6.3v-5.13l-4.9-2-4.91-2-19.7.15c-22.59.17-31.68 0-34.42-.73-5-1.29-9.25-5.23-12.14-11.27a57.36 57.36 0 0 1 -4.2-14.92 54.05 54.05 0 0 1 -.61-7.41c.12-.36 9.13-.52 29.11-.52 12.25 0 18.49-.09 20.42-.27 1.62-.16 6.19-.27 10.93-.27 6.7 0 8.61.07 10.76.38a29 29 0 0 1 7.86 2.08l1.26.63.06-2.09c.12-4.39 1.92-12.61 4.77-21.87 1.35-4.37 1.52-4.78 2-4.85a.76.76 0 0 1 .7.22 22.39 22.39 0 0 1 .19 3.75c0 2 .08 3.39.2 3.26s1.08-2.39 2.16-5.06 2-4.89 2-4.93a2.08 2.08 0 0 1 .61 0l.54.11-.06 3.19c0 2.24 0 3.09.16 2.86s1.23-2.06 2.46-4.18a18.64 18.64 0 0 1 2.55-3.85c.95 0 1 .1.25 6a50.42 50.42 0 0 0 -.54 6.49 5.71 5.71 0 0 0 .78 1.81 41.72 41.72 0 0 1 2.07 3.91 19.74 19.74 0 0 0 2.38 4 16.09 16.09 0 0 1 3.1 5.44 14.48 14.48 0 0 1 .23 6.18 2.13 2.13 0 0 0 -.14.83 3.84 3.84 0 0 0 1.12-.7 28.94 28.94 0 0 1 6.83-3.31c1.28-.35 2.5-.39 13.25-.39 22.8 0 54.06.48 58.63.89l1.38.13-.15 2.42c-.71 11.51-3.85 20.33-9.21 25.86a21 21 0 0 1 -9.7 5.83c-1.72.5-1.81.5-13.14.46-6.27 0-17.59-.15-25.15-.29l-13.75-.24-5 2-5 2v1.55a24.25 24.25 0 0 1 -.14 2.56l-.14 1h6.79v7.55c0 4.15.06 7.77.13 8s0 .49-.33.49-.46.14-.46.33-2.27.32-19.12.32c-15.11 0-19.15-.05-19.23-.27z" fill="#fee40d"/><path d="m152.94 154.92-.34-10.53-1.59.3.23 10.4zm-4-10-1.86.22v9.92h2.35zm.6-2.63-1.24-5.64-1.43.39.59 6zm8.12-.87-.66-1.42-1.45 1 .56 1.29zm-4.63-.7-1.64-5.15-1.78.66 1.43 5.51zm8.87-1.08-1.24-2.06-2.1 1.42.79 1.73zm-5.61-1.17-2-4.76-1.39 1.12 2 4.78zm9.59 0-2.15-2.76-2 1.13 1.59 2.26zm47.68.15-18.68-10-3.32 1 15.56 9.29zm8-1.57-21.67-10.18-3.64 1.2 20 10.41zm-31.92-7.05-3 .56 11.23 7.8 6.65.37zm5 8.17-10.33-7.26-3.79.66 8.06 6.33zm-22.82-.41-3.93-4.06-2.31 1 2.84 3.37zm14.08 0-7.82-5.92-2.79.43 6.22 5.59zm-13.09-5.07-2.7.58 4.37 4.6h3.83zm-12.81 3.73-3.19-4.69-1.48 1.06 2.44 5.08zm66.38-2.18-22-9.26-3.17 1.48 21.79 10zm-63.67.26-3.37-4.64-1.66 1.14 3.15 4.58zm-14.78.17-1.11-6.12-.76.12.6 6.26zm2.94-.81-1.87-6.05-1.21.53 1.53 5.95zm15.85-1.53-4.2-4.38-1.68 1.12 3.87 4.34zm-13.29 0-2.43-5.52-.85.75 2.31 5.34zm76.14-3.06-20.8-7-2.69 1.82 21.57 8.55zm-58.48 1.73-5.18-4.65-1.94.9 4.76 4.38zm-15.28-1.16-2.92-4.19-.89.62 2.49 5zm19.62.18-6.15-4.71-2 .59 5.9 4.68zm2.53-.36 3.09-.55-7-4.84-2.68.5zm-19.96-1.66-3.21-4.23-1.12 1.23 2.92 4zm28.55.1-8-4.52-2.44.22 7.59 4.86zm43.94-.14 1-3.11-19.46-5.3-2.39 2zm-38.65-1-7.8-4.1-2.69.4 7.44 4.33zm-31-1-3.91-4.17-1.33 1.21 3.55 4.1zm36.11-.38-7.65-3.58-3.67.59 7.81 4zm-33.1-1.34-4.66-4.15-1.08.76 4 4.44zm38-.32-7.38-3.07-3.07.8 7.41 3.37zm-34.8-.74-5.05-4.18-1.78.54 4.95 4.31zm65.86-3.07-18.41-3.59-1.55 2.1 19.1 4.81zm-27 1.25-6.25-2.13-3.16 1.12 6.88 2.8zm-34.27 1.1-6-4.35-2.08.39 5.31 4.28zm4-.44-6.34-4.56-2.22.37 6.18 4.38zm5.29-.59-8-4.66-2.41.33 7.52 4.62zm5.24-.78-9-4.74-2.42.47 8.86 4.71zm23-1.94-6.38-1.71-2.14 1.68 6.41 2zm-17.58 1-9.91-3.93-2.68.22 9.48 4.32zm5.07-1.52-9.26-3-3.54.36 9.73 3.5zm-36.85-.42 3.57-1.47-.08-5.85-6 3.21v5.34l2.48-1.26zm74.05-2.24-18-2.21-.76 2 18.21 3zm-22.15.47-6.45-1.11-1.26 1.41 6.09 1.46zm-11.54.27-8-2-2.63.72 8.21 2.71zm2.63-1.86-6.4-1.41-2.08.78 6.88 1.88zm-36.8 1.11 5.66-.68v-6.24l-6 1zm47-2.52-6.48-.79-.76 1.59 6.56 1.11zm-32.39 1.1v-5.1l-6.82-.38.17 6.07zm7.9-.83v-4.1l-5.51-.17v4.7zm46.21-3.56-18.28-.52-.29 2.44 18.06 1.75zm-35.72 1.53-1.31 1 6.05 1.09.87-1.45zm-6.21 1a9.18 9.18 0 0 0 4.52-2.4 4.18 4.18 0 0 0 .6-.94l-7.38.2v3.73l2.26-.62zm21.42-3.06-6.27-.33-.62 1.77 6.33.71zm-8.88 1.33.67-1.51-5.77-.2-.33 1.2zm-76.88 45.39h31.78v9.65h-31.78zm30.45 1.82h-29.11v6.28h29.11zm-15.76-12.27h2.42l-.15 9.79-2.27.06zm-7.57 9.49.34-10.53 1.59.3-.23 10.4zm4-10 1.86.22v9.92h-2.35zm3.33-7.87h2.94l.35 6.27h-3.63zm-3.9 5.24 1.24-5.64 1.43.39-.67 5.94zm-8.12-.87.71-1.48 1.45 1-.56 1.29zm4.63-.7 1.64-5.15 1.78.66-1.43 5.51zm-8.87-1.08 1.24-2.07 2.12 1.41-.79 1.73zm5.61-1.17 2-4.76 1.39 1.12-2 4.78zm-9.59 0 2.15-2.75 2 1.13-1.59 2.26zm-47.66.16 18.68-10 3.32 1-15.56 9.29zm-8-1.57 21.6-10.14 3.64 1.2-20 10.41zm31.87-7.08 3 .56-11.23 7.79-6.65.38zm-5 8.17 10.33-7.26 3.79.66-8.06 6.33zm22.82-.42 3.93-4.05 2.31 1.05-2.84 3.37zm-14.08 0 7.82-5.92 2.79.43-6.22 5.62zm13.09-5.08 2.7.59-4.4 4.62h-3.83zm12.83 3.73 3.19-4.69 1.48 1.07-2.44 5.08zm-66.38-2.17 22-9.26 3.17 1.48-21.79 10zm63.67.26 3.37-4.64 1.68 1.12-3.15 4.59zm14.78.17 1.11-6.12.76.11-.6 6.27zm2.87-5.85h1.78l.41 6.13h-2.56zm-5.81 5 1.83-6 1.21.53-1.53 5.95zm-15.85-1.53 4.19-4.28 1.68 1.11-3.87 4.35zm13.29 0 2.46-5.52.85.74-2.31 5.35zm-76.1-3.06 20.8-7 2.65 1.78-21.57 8.55zm58.5 1.67 5.18-4.65 1.94.91-4.76 4.38zm15.28-1.15 2.92-4.19.89.62-2.49 5zm-19.62.18 6.15-4.71 2 .58-5.9 4.69zm-2.53-.36-3.13-.56 7-4.84 2.68.5zm20-1.57 3.21-4.24 1.11 1.16-2.92 4zm-28.55.1 8-4.52 2.44.22-7.59 4.86zm-44.08-.09-1-3.09 19.46-5.3 2.39 2zm38.65-1 7.8-4.1 2.69.4-7.44 4.32zm31-1 3.91-4.17 1.33 1.23-3.55 4.1zm-36.11-.38 7.6-3.59 3.67.59-7.81 3.94zm49.49.77a8.77 8.77 0 0 1 -6.76-5.36 13.74 13.74 0 0 1 -.75-4.4c-.14-2.71-.12-2.84.36-2.71l2.92.88c2.28.7 2.65.73 7.47.73s5.2 0 7.48-.73c1.32-.41 2.63-.8 2.91-.88.48-.13.5 0 .36 2.71-.19 3.71-.84 5.46-2.72 7.3s-3.71 2.51-7.36 2.61a23.45 23.45 0 0 1 -3.84-.14zm-16.39-2.11 4.66-4.15 1.08.75-4 4.45zm-37.88-.28 7.38-3.07 3.07.8-7.41 3.37zm34.8-.74 4.93-4.17 1.78.54-5 4.31zm-65.86-3.1 18.41-3.6 1.55 2.11-19.1 4.8zm27 1.25 6.3-2.13 3.16 1.12-6.88 2.8zm34.27 1.1 6-4.35 2.08.39-5.31 4.28zm-4-.44 6.34-4.56 2.22.37-6.18 4.38zm-5.29-.59 8-4.66 2.41.32-7.52 4.63zm-5.24-.78 9-4.74 2.42.47-8.86 4.71zm-23-1.94 6.28-1.76 2.14 1.68-6.41 2zm17.59 1 9.9-3.93 2.65.22-9.48 4.32zm-5-1.54 9.27-3 3.53.36-9.73 3.5zm36.85-.42-3.57-1.47.08-5.85 6 3.21v5.37l-2.48-1.26zm-74-2.24 18-2.21.76 2-18.21 3zm22.12.44 6.45-1.12 1.21 1.42-6.09 1.45zm11.54.27 8-2 2.63.72-8.17 2.71zm-2.63-1.86 6.2-1.41 2.08.78-6.88 1.87zm36.77 1.11-5.66-.68v-6.25l6 1zm-47.18-2.52 6.5-.8.76 1.59-6.56 1.11zm32.39 1.1v-5.1l6.82-.39-.17 6.08zm32.78 0a7.86 7.86 0 0 1 -6-5.27 19.35 19.35 0 0 1 .27-9.2c.21 1 .42 3.94 1.46 4a14.28 14.28 0 0 0 .92-3.2c.39-1.76 1.1-4.37 1.58-5.81l.86-2.61.17 2.35c.2 2.76.72 5.35 1.07 5.35.14 0 .25-.23.25-.52 0-1.38 2.78-11 3.17-11 .43 3-.07 5.92.66 9 .52 2.09 1 3.26 1.24 3.26 1.09-2.36 1.23-4.7 1.67-7.18a21.86 21.86 0 0 1 1.3 6.79 22.21 22.21 0 0 0 .51 4.15c.52.5 1.76-4 1.41-5.06-.27-.84 1 1 2 2.79a6.34 6.34 0 0 1 1 3.67c0 3.91-2.85 7.06-7.64 8.3a15.26 15.26 0 0 1 -5.87.09zm-40.67-.84v-4.1l5.49-.21v4.7zm-46.21-3.57 18.28-.51.29 2.44-18.06 1.75zm35.73 1.57 1.31 1-6 1.09-.83-1.45zm6.21 1a9.18 9.18 0 0 1 -4.52-2.4 4.18 4.18 0 0 1 -.6-.94l7.38.2v3.73l-2.27-.62zm-21.43-3.09 6.27-.33.62 1.77-6.33.71zm8.88 1.33-.62-1.56 5.77-.2.28 1.21zm50.07 47.66-.67 1.93h-2.06l1.65 1.21-.59 1.94 1.67-1.15 1.68 1.15-.6-1.94 1.66-1.21h-2.07zm0 2.13a.68.68 0 1 1 -.7.68.69.69 0 0 1 .7-.68zm6.9-2.13-.66 1.93h-2.07l1.65 1.21-.59 1.94 1.67-1.15 1.69 1.15-.61-1.94 1.67-1.21h-2.08zm0 2.13a.68.68 0 1 1 -.68.68.67.67 0 0 1 .68-.68zm7.43-2.13-.67 1.93h-2.01l1.65 1.21-.59 1.94 1.67-1.15 1.69 1.15-.61-1.94 1.66-1.21h-2.07zm0 2.13a.68.68 0 1 1 -.68.68.67.67 0 0 1 .73-.68zm6.91-2.13-.67 1.93h-2.02l1.66 1.21-.6 1.94 1.68-1.15 1.68 1.15-.61-1.94 1.67-1.21h-2.08l-.66-1.93zm0 2.13a.68.68 0 1 1 -.68.68.67.67 0 0 1 .73-.68z" fill="#e20730"/><path d="m125.36 167.38a99.66 99.66 0 0 1 0-10.8 11.81 11.81 0 0 0 .16-2.72v-2.72h6.3v-5.14l-4.9-2-4.92-2-19.7.15c-22.59.17-31.68 0-34.43-.73-5-1.29-9.25-5.23-12.13-11.27a56.59 56.59 0 0 1 -4.2-14.92 54.05 54.05 0 0 1 -.61-7.41c.12-.36 9.13-.52 29.11-.52 12.25 0 18.49-.08 20.42-.27 1.62-.15 6.18-.27 10.93-.27 6.7 0 8.61.07 10.75.39a28.94 28.94 0 0 1 7.87 2.07l1.26.63.06-2.09c.12-4.39 1.91-12.61 4.77-21.86 1.34-4.38 1.51-4.79 2-4.86a.76.76 0 0 1 .7.22 22.51 22.51 0 0 1 .2 3.74c0 2 .08 3.38.2 3.26s1.08-2.4 2.16-5.07 2-4.89 2-4.92a1.26 1.26 0 0 1 .61 0l.54.1-.06 3.19c0 2.24 0 3.09.16 2.86s1.23-2.06 2.45-4.17c1.33-2.29 2.36-3.86 2.56-3.86.95 0 .95.11.25 6a50.42 50.42 0 0 0 -.54 6.49 5.4 5.4 0 0 0 .78 1.81c.35.52 1.28 2.28 2.07 3.91a20.66 20.66 0 0 0 2.37 4 15.72 15.72 0 0 1 3.1 5.45 14.44 14.44 0 0 1 .23 6.17 1.81 1.81 0 0 0 -.13.83 3.79 3.79 0 0 0 1.11-.7 28.41 28.41 0 0 1 6.84-3.3c1.28-.36 2.5-.4 13.25-.4 22.8 0 54.06.48 58.63.9l1.38.12-.15 2.43c-.71 11.5-3.85 20.32-9.21 25.85a21 21 0 0 1 -9.7 5.83c-1.72.5-1.81.5-13.14.46-6.28 0-17.6-.15-25.16-.29l-13.75-.24-5 2-5 2v1.55c0 .85-.06 2-.13 2.56l-.14 1h6.79v7.55c0 4.15.07 7.77.14 8s0 .48-.33.48-.46.14-.46.33-2.27.33-19.13.33c-15.1 0-19.14-.06-19.22-.28zm37.92-8.12v-7.26l-3.38.16-3.37.15.06-3.62.06-3.61 5.54-2.26 5.53-2.25 10.54.21c22.8.47 37.82.57 39.58.27 7.2-1.22 12.94-6.24 16.26-14.25 1-2.38 2.46-7.46 2.32-8a.43.43 0 0 1 .07-.44 57.78 57.78 0 0 0 1-7.15l.15-2.3-3.56-.15c-8.26-.33-22.33-.55-43.65-.68-22.52-.14-22.71-.14-24.44.31a21.72 21.72 0 0 0 -6.69 3.24c-1.27 1-1.42 1-2.48 1l-1.14-.08.41-.79a10.09 10.09 0 0 0 .81-5 13.27 13.27 0 0 0 -3.57-7.63 16.15 16.15 0 0 1 -1.91-3.23c-1.14-2.53-2.7-5.29-3-5.29a1 1 0 0 0 -.5.38c-.27.35-.28.35-.29-.06 0-.24.29-2.82.64-5.74s.61-5.34.57-5.38-1.23 1.9-2.64 4.33l-2.93 5c-.35.57-.36.43-.26-3.15a27.79 27.79 0 0 0 0-3.65 21.24 21.24 0 0 0 -1.55 4.16.12.12 0 0 1 -.1.19 11.94 11.94 0 0 0 -1.24 2.6c-1 2.48-1.07 2.61-1.65 2.61h-.61v-2c0-1.1-.09-2.64-.16-3.42l-.17-1.48-.7 2.36a13 13 0 0 0 -.6 2.54.16.16 0 0 1 0 .22c-.27.1-1.86 6.21-2.63 10.07-1.13 5.71-1.38 9.1-.79 11l.3 1-.57-.13a3.72 3.72 0 0 1 -1.23-.72c-1.51-1.36-3.7-2.18-7.51-2.82-5.44-.92-16.38-1-24.75-.21-1.66.16-6.06.2-13 .11-10.84-.13-33.56.11-33.81.36a33.56 33.56 0 0 0 .54 6 3.39 3.39 0 0 1 .19 1.18c.15 2.73 2.06 9.43 3.73 13 1.89 4.08 4.9 7.77 7.73 9.5a19.33 19.33 0 0 0 3 1.37c1.55.52 2.23.61 6.4.79 2.57.11 14.6.18 26.73.14l22-.06 5.1 2.14c2.81 1.18 5.19 2.21 5.28 2.3a20.78 20.78 0 0 1 0 3.7l-.15 3.54-3.12-.15-3.11-.16v14.37h36.72z"/><path d="m110.66 303.63c-23.3-4.52-23.27-5.93-28.25-7.38a68.72 68.72 0 0 1 -8.65-4.37l-2.19-1.21 1.48-2.81a14.24 14.24 0 0 0 1.36-3c-.06-.11-.44-.2-.83-.2a22.49 22.49 0 0 1 -5.58-1.45 25.41 25.41 0 0 1 -10-7.86 25.12 25.12 0 0 1 -4.82-14.14v-1l.71.58a34.56 34.56 0 0 0 6.11 4.21c2 1 5.53 2.23 5.75 2a24 24 0 0 0 -2.65-3.13c-5.26-5.69-7.4-9.25-8.35-13.86a35.85 35.85 0 0 1 -.34-6.87c.84.14 8.09 10.15 17.34 11.25.75.21 2.39.74 3.64 1.19a26.69 26.69 0 0 1 6.3 2.61 21.79 21.79 0 0 1 6.22 4.41 11.16 11.16 0 0 1 3.73 8.73l-.08 1.33 2.73.79a176.09 176.09 0 0 0 37.16 6.41c4.23.26 15.35.27 19.66 0a204 204 0 0 0 39.65-6.36l3.58-.94.13-2.38c.2-3.59 1.11-5.54 3.84-8.18a23.85 23.85 0 0 1 6.62-4.43l3.33-1.6c.21 0 1.87-.58 3.29-1.05.71-.24 9.73-3.43 10.76-4.17a26 26 0 0 0 5-4.13c.3-.32 3.67-3.86 4.2-3.9s.85 10-4.71 16.64c-.83 1-6.77 7.47-6.6 7.42a28.79 28.79 0 0 0 10.9-5.49l1.45-1.21.08 1.47c.18 3.79-1.54 8.94-4.34 13a30.41 30.41 0 0 1 -6.25 6.16c-2.54 1.71-7 3.49-8.85 3.49a.84.84 0 0 0 -.61.19 20.81 20.81 0 0 0 1.51 3.62c.9 1.88 1.61 3.44 1.58 3.46a104 104 0 0 1 -21 8.88c-11.13 3.39-21.24 4.48-32.08 5.44a242.82 242.82 0 0 1 -37.37-.39c-5-.45-10.61-1.2-14.6-1.78zm-36.2-18.82.8-1.14 3.74-7.11 3.71-7.11 3.37-1.11c1.85-.61 4.75-1.48 4.75-1.48m104.34.08 5.27 1.07 4.44 1.07 3.5 7.16 4.26 8.16" fill="#fee40d" stroke="#000" stroke-miterlimit="10" stroke-width="1.09"/><path d="m194.36 272.52 10.35-3.42" fill="#fee40d" stroke="#000" stroke-miterlimit="10" stroke-width="1.09"/><path d="m91.53 272.56-8.82-3.14" fill="#fee40d" stroke="#000" stroke-miterlimit="10" stroke-width="1.09"/><path d="m135.35 298.8c-2.48-.16-3.19-.28-3.11-.49s.22-2.56.36-5.35.27-5.08.29-5.09 1.47 0 3.23.08l3.2.12v.62c0 .7 0 .7-2.43.44-1.69-.19-1.69-.19-1.69 2.08v1.36h3.8l-.09.63-.09.64-1.94-.12-1.93-.13v4.19h3.91v.65c0 .36-.07.64-.16.62s-1.61-.13-3.38-.25zm6.15-5.11v-5.4l2.22-.12c3-.16 4.16 0 5 .87a2.54 2.54 0 0 1 -.94 4.15c-.47.2-.85.46-.85.59a18.59 18.59 0 0 0 1.58 2.51c.88 1.24 1.65 2.36 1.72 2.47s-.43.22-1.32.23h-1.45l-1.62-2.62-1.63-2.63-.07 1v2.66l.07 1.69h-2.71zm4.32-.57a2.39 2.39 0 0 0 1.05-2.54c-.16-1.15-.48-1.45-1.74-1.62l-1-.14v4.62h.56a3 3 0 0 0 1.16-.32zm8.41 2.71c-.32-6.61-.36-7-.87-6.86-.25 0-1 .15-1.6.23l-1.14.12v-1.25l3.21-.15c1.76-.08 3.72-.2 4.34-.28l1.14-.13v1.37h-3.06l.13 1.57c.17 2.17.54 7.6.54 7.91 0 .16-.49.28-1.27.33l-1.27.07zm7 2.48s1.53-4.73 2.17-6.82c1.35-4.42 1.4-4.53 2-4.62s.69 0 2.28 2.86c.92 1.62 2.27 3.95 3 5.17l1.36 2.23h-.69a14 14 0 0 0 -1.45.13c-.77.13-.77.13-1.51-1.41a4.76 4.76 0 0 0 -1-1.54c-.12 0-1.07.11-2.11.24l-1.89.24-.36 1.69c-.36 1.68-.37 1.69-1.11 1.78a6.3 6.3 0 0 1 -.75.05zm5.83-4.78a17 17 0 0 0 -1.95-3.57c-.1 0-.27.37-.39.82s-.37 1.3-.55 1.9-.33 1.11-.33 1.15a21.66 21.66 0 0 0 3.22-.3zm-46.06 4.08c-2.35-.31-2.54-.37-2.63-.84 0-.27 0-.52.07-.55a81.35 81.35 0 0 0 1.07-8.94c0-.8 0-.81.71-.7.39.06 1.77.22 3.06.35 5.07.5 7.16 2.24 6.8 5.66a5.65 5.65 0 0 1 -4.12 5.09c-1.28.38-1.61.37-5-.07zm4.16-1a4.82 4.82 0 0 0 2.29-3.93 4.57 4.57 0 0 0 -1-3.66c-.71-.8-1.41-1.09-3.18-1.31-1.06-.14-1.14-.12-1.24.36a76.34 76.34 0 0 0 -.84 8.68c.51.42 3 .33 4-.17zm57.46.75c-.08-.13.07-.46.34-.75.43-.45.47-.66.34-1.67-.16-1.27-1.67-8-2.16-9.57l-.32-1 .58-.13 1.3-.31c.8-.2.76-.26 1.11 1.53.13.66.63 2.93 1.13 5.05l.9 3.86-.38 1a3 3 0 0 1 -1.38 1.63c-1.1.69-1.25.73-1.46.39zm-8.56-2.57c-.14-1-.57-3.44-.95-5.37l-.69-3.51 1-.12a7.67 7.67 0 0 0 1.35-.26c.31-.12.38 0 .38.52s1.46 9 1.6 9.08a11.9 11.9 0 0 0 1.87-.37 12 12 0 0 1 1.88-.36 1.63 1.63 0 0 1 .13.58c.06.48 0 .53-2.2.9-1.24.21-2.67.48-3.17.59l-.92.19zm-65.58 1c-3.23-.91-4.88-2.76-4.87-5.46a5.17 5.17 0 0 1 1.82-4.13 5.33 5.33 0 0 1 4.31-1.47c3.87 0 6.69 2.12 6.91 5.11a5.38 5.38 0 0 1 -3 5.54 7.78 7.78 0 0 1 -5.12.41zm3-1.08c2.18-1.12 3.31-4.87 2.18-7.21a3.65 3.65 0 0 0 -4.91-1.56 3.91 3.91 0 0 0 -.79.56 6.46 6.46 0 0 0 -1.62 4.39c-.08 1.67 0 1.92.42 2.61a4.2 4.2 0 0 0 1.27 1.14 4.63 4.63 0 0 0 3.45.06zm77.49-2c-.76-3-1.67-6-2.73-9-.51-.31.42-.78 3.08-1.55 1.59-.46 3-.84 3-.84a1.62 1.62 0 0 1 .24.54c.11.58-.2.73-2.24 1.09-1.4.25-1.44.34-1 2a8.05 8.05 0 0 0 .58 1.67 4.47 4.47 0 0 0 1.87-.38c1.3-.44 1.73-.51 1.86-.3.39.6 0 .9-1.67 1.35a4.09 4.09 0 0 0 -1.71.67 18.12 18.12 0 0 0 1.19 3.79 19 19 0 0 0 1.93-.64c1.29-.47 1.74-.56 1.74-.34a.41.41 0 0 0 .21.36c.57.2-.35.63-2.92 1.38-1.56.45-2.94.86-3.07.91s-.31-.25-.4-.72zm-92.37.05c-1.14-.28-2.69-1.11-2.69-1.44a4.15 4.15 0 0 1 .47-1l.48-.81.17.61c.63 2.38 4.31 2.69 4.31.36 0-.67-.19-1-1.36-2.06-1.76-1.67-2.11-2.22-2.12-3.31 0-2.53 2.84-3.88 5.54-2.62 1.55.72 1.71 1 1.16 1.85l-.46.71-.38-.85c-.57-1.29-2.37-1.79-3.25-.91s-.59 1.56 1.29 3.41 2.11 2.38 1.88 3.63c-.38 2-2.54 3.05-5 2.43zm66.14-6.76c-.78-.45-.34-1.72.59-1.72a1 1 0 0 1 .88 1.11 1 1 0 0 1 -.32.62 1.13 1.13 0 0 1 -1.15 0zm3.53-.63c-.85-.64 0-1.49.73-1.52a.86.86 0 0 1 .52 1.62c-.62.46-.73.45-1.25-.07zm-53.4-1.21c-.89-.62-.49-1.62.65-1.62a.83.83 0 0 1 .87.57c.23.51.2.62-.25 1-.61.5-.66.5-1.27.07zm-3.83-1a.94.94 0 0 1 .21-1.31l.11-.07a1.09 1.09 0 0 1 1.41.63 1 1 0 0 1 -1 1.05 1 1 0 0 1 -.77-.3z"/><path d="m31.66 82.58a4.32 4.32 0 0 0 -1.75-3.41 2.2 2.2 0 0 1 -.91-1c-.08-.43.13-.65 1.35-1.4a9.61 9.61 0 0 0 4-4.25c1.08-2.18 1.53-4.07 1.25-5.2l-.23-.9.44.6a1.25 1.25 0 0 0 1 .59 1.74 1.74 0 0 1 1.58 1.39c0 .42-.58 1.36-2.5 4a3 3 0 0 0 -.76 2.19 3.07 3.07 0 0 0 .32 1.55c.49.65.39.79-.31.43a3.11 3.11 0 0 0 -1.2-.33 2.55 2.55 0 0 0 -1.91.94c-.22.55.39 1.33 1.41 1.82 1.61.76 1.6 1.69 0 2.37a4.06 4.06 0 0 0 -1.26.91l-.48.58zm219-.55a9.18 9.18 0 0 1 -2.66-1.49c-.35-.44-.52-.51-.83-.34-.49.28-5.72-1.63-6-2.2a2.85 2.85 0 0 1 .77-2.53c.31-.41.52-.88.46-1a11.89 11.89 0 0 0 -4-1.42.93.93 0 0 0 -1 .85v.15c0 .68.54 1 1.63 1h1l-.46.49a5.4 5.4 0 0 1 -1.38.93c-.84.41-1 .42-1.66.14-2-.82-2.22-3.6-.49-5.12 1.21-1.06 1.87-1.06 5 0a11.71 11.71 0 0 0 3.55.83l.8-.08-.69 1.85c-1.08 2.89-1.11 2.77.79 3.5.89.35 1.65.63 1.68.63a.91.91 0 0 0 .06-.44c0-.71.6-2 1-2s.48.55.78 1.53c.38 1.25.59 1.61 1.16 2 .89.55 1.55.57 1.4 0-.55-1.88-.64-2.44-.52-2.94.19-.74.94-.94 2.19-.59a3.37 3.37 0 0 0 1.41.12c.59-.19.58-.12-.2.85s-1.08 2-1.08 4.3a5.35 5.35 0 0 1 -.22 2 26.08 26.08 0 0 1 -2.43-1zm-213.75-2.03a1.16 1.16 0 0 1 -.48-1 1.19 1.19 0 0 1 1.13-1.26h.19a34 34 0 0 0 5.63-2c.38-.2.46-.4.38-.94a4.88 4.88 0 0 0 -.25-1c-.26-.59 1.09-.24 1.86.48l.68.64 4.15-1.32 4.14-1.38-2.27-1.6c-6.7-4.7-6.73-4.72-6.73-5.77 0-.58.19-.94.85-1.6a9.16 9.16 0 0 0 1.07-1.25c.19-.34.24-.27.36.47.26 1.56.82 2.48 2.44 4a45.86 45.86 0 0 0 7 5.33c1.79 1.13 2 1.28 1.49 1.42l-6.36 2c-4.19 1.37-5.9 1.78-6.07 1.65s-.33-.12-.58.2a18.21 18.21 0 0 1 -4.09 1.93c-2.08.78-3.84 1.41-3.92 1.41a2.06 2.06 0 0 1 -.61-.35zm195.09-5a2.73 2.73 0 0 0 -1.32-.47c-1.92-.25-2.21-1.44-.83-3.34.81-1.12.7-1.27-1.34-1.93s-2.46-1-2.32-2a3.58 3.58 0 0 1 .45-1.31l.34-.48.22.57c.27.72.84 1.07 2.72 1.68a3.56 3.56 0 0 0 2.36.27c.8-.22.84-.2.73.24a17.54 17.54 0 0 1 -.71 1.87c-.82 2-.91 3.16-.33 4.31.49 1 .5 1.19.06.64zm-9.75-3a2.18 2.18 0 0 0 -1.33-.43c-1.61 0-2-1.36-.87-3.13.79-1.23.67-1.48-.83-1.86a16.56 16.56 0 0 1 -1.95-.66c-.83-.37-.92-.48-.92-1.17s.36-1.75.65-1.75c.07 0 .29.29.49.64.6 1 4.24 1.94 5.41 1.31.56-.3.55-.07-.12 1.57a17.91 17.91 0 0 0 -.8 2.58 2.52 2.52 0 0 0 .31 2.36 9.13 9.13 0 0 1 .53 1.09 4.53 4.53 0 0 1 -.55-.43zm4.4-.1c-.33-.5-.33-.58 0-1.09.45-.68 1.17-.71 1.41 0a1.14 1.14 0 0 1 -.38 1.41c-.46.43-.65.39-1-.25zm-163.71-.9a4.2 4.2 0 0 0 -1-2.45 4.23 4.23 0 0 1 -.82-1.64 11.06 11.06 0 0 1 1.56-.63 9.29 9.29 0 0 0 1.6-.66c.11-.09-.26-.8-.82-1.57-1-1.39-1-1.41-1.7-1.22a5.45 5.45 0 0 1 -3.1-.06 2.39 2.39 0 0 1 -1.19-1.77c0-.84.78-1.66 2.23-2.33.8-.37 1.46-.79 1.46-.94a.86.86 0 0 1 .33-.52c.27-.23.33-.19.33.24a10.51 10.51 0 0 0 1.38 3.23c.4 0 5.92-1.58 6.42-1.83a4 4 0 0 0 1.76-2c0-.32 0-.31.33.06a2.37 2.37 0 0 1 -.23 2.69c-.63.75-1.48 1.11-4.67 2a7.49 7.49 0 0 0 -2.25.81 7.9 7.9 0 0 0 1.76 2.48 14.1 14.1 0 0 0 4.1-1.89c.52-.4 1-.65 1-.57a12.33 12.33 0 0 1 .4 1.59c.46 2.9 1 3.84 2.53 4.83.4.25.38.26-.15.14a2.3 2.3 0 0 0 -1.29.22c-1.62.82-2.47.09-2.48-2.14v-1.34h-.89c-.94 0-2.24.46-2.24.76a8.88 8.88 0 0 0 1 1.57c1.48 2 1.5 2 .4 2.34l-3.24.87c-1.28.35-2.38.64-2.45.64a2.14 2.14 0 0 1 -.11-.91zm3-2.12c.81-.29.82-.34.15-1.16-.49-.6-.55-.61-1.24-.34-1.06.42-1.16.56-.75 1.18s.81.66 1.9.3zm-4.83-7.88c.08-.13-.1-.48-.4-.78-.45-.46-.61-.5-1-.29s-.59.66-.2 1 1.4.42 1.6.07zm147.65 7.5c-.83-.58-.93-1.21-.28-1.77a2.09 2.09 0 0 1 1-.49 1.3 1.3 0 0 1 .69 2.27c-.61.43-.82.42-1.44 0zm-6.17-1.43c.61-.93.67-1.49.44-4.63v-.84l2.61-.11a8.78 8.78 0 0 0 5.78-1.78 8.13 8.13 0 0 0 3.06-3.1c.36-.77.4-.8.28-.22s0 .78.54 1.29c1.36 1.31.68 2.28-2.39 3.37s-3.91 1.83-3.91 3.74v.94l-.29-.65a3 3 0 0 0 -2.28-1.79c-.82-.11-.9-.07-1.13.51s-.16.78.36 1.75.58 1.21.35 1.71-.31.57-1.51.43a5 5 0 0 0 -1.84.08l-.66.23zm-121.83-.15c-.45-.45-.5-.68-.53-2.5 0-1.24.23-1.16-3-.86l-1.66.16-.35-.67c-.37-.71-.47-2-.16-2a.8.8 0 0 1 .46.32c.59.71 4.21.1 5.22-.87.3-.29.64-.45.76-.37a3.49 3.49 0 0 1 .28 1.46 14.8 14.8 0 0 0 .41 2.57 3.05 3.05 0 0 0 1.35 2c.81.61.89.73.43.62a2.43 2.43 0 0 0 -1.38.2c-1.04.48-1.31.47-1.83-.06zm111.15-1.64a26.74 26.74 0 0 1 -4.91-1.23c-.91-.45-1.08-.48-1.48-.21-.72.48-5.19-.2-5.75-.87s-.36-1.52.2-2.6.46-1.19-1.75-1.47a5 5 0 0 0 -2.5 0 1.07 1.07 0 0 0 -.28 1.44 2.09 2.09 0 0 0 2 .31c.77-.42.52.19-.5 1.22s-1.72 1.19-2.77.57a3.4 3.4 0 0 1 -1.41-3 4.22 4.22 0 0 1 1.83-2.59c.68-.39.89-.4 3-.17 2.88.31 4.06.32 4.63 0 .4-.21.43-.18.3.38s-.52 3.68-.52 4.14c0 .13.46.31 1 .39s1.24.2 1.5.26.45 0 .35-.46q-.4-2.09 3.42-4.68c.65-.44.71-.45.38-.08a1.6 1.6 0 0 0 -.38.67 7.67 7.67 0 0 0 1.53 1.48l1.56 1.22 1.74-.68a19 19 0 0 1 1.92-.68 9.83 9.83 0 0 1 .68 2.44 18.62 18.62 0 0 0 .63 2.55 1.18 1.18 0 0 1 .14.55 7.5 7.5 0 0 0 .18 1.14c.2.88.38.88-4.74-.07zm1.93-2.43c-.37-1.87-.45-1.91-1.84-.9-1 .71-.95 1 .11 1.12 1.49.22 1.8.18 1.73-.22zm-3.88-1a1.8 1.8 0 0 0 -1.87-1.65c-.61 0-.78.17-.84.57a1.29 1.29 0 0 0 .22.85 3.53 3.53 0 0 0 2.11.92c.47 0 .5 0 .42-.66zm-99.28 3.2a2.75 2.75 0 0 1 -.49-2.5 2 2 0 0 0 -.09-1.2 8.52 8.52 0 0 0 -2.2.13c-1.87.25-2 .24-2.4-.18s-.86-2.45-.53-2.45a2.86 2.86 0 0 1 .77.46c.58.43.72.45 2.11.21 2.08-.35 2.85-.63 3.22-1.16.18-.25.38-.4.45-.33a11.67 11.67 0 0 1 .33 2.21c.23 2.49.57 3.38 1.54 4.07l.73.52-.87.15-1.54.29a1 1 0 0 1 -1-.22zm-3.19-.55c-.49-.5-.49-.6-.09-1.22s.87-.61 1.31.06c.33.5.33.58 0 1.08-.43.66-.65.68-1.22.11zm9.65-.63a3.33 3.33 0 0 1 -1.14-4.55 3.43 3.43 0 0 1 1-1 14.58 14.58 0 0 1 3.32-.78 9.94 9.94 0 0 0 3.35-.83c.69-.51.84-.39.84.64a11.72 11.72 0 0 0 .65 3.56 3.54 3.54 0 0 0 1.52 0c1.12-.13 1.31-.21 1.19-.51a3.22 3.22 0 0 1 .21-3c.75-1.37 2.1-3 1.93-2.31-.1.43.08.57 1.56 1.25a11.81 11.81 0 0 0 2 .77 6.12 6.12 0 0 0 1.59-1.11 6.44 6.44 0 0 1 1.62-1 8.24 8.24 0 0 1 1.41 2.39c.82 1.78 1.19 2.37 1.45 2.3s2.41-.22 5-.37l4.62-.26v-.6c0-1.27 0-1.28-2.9-1.28-3.86 0-4.45-.48-4.31-3.4v-.69l1.76.9a5.45 5.45 0 0 0 3.42.9 5.55 5.55 0 0 0 3.07-.66l1.42-.67v2.95a11.31 11.31 0 0 0 .36 3.84c-1.75 2.56-13.85 1.61-18.24 2.06a10.46 10.46 0 0 1 -3.35 0c-1-.21-1.17-.19-1.58.18s-3.28.9-5.08.9c-1 0-1.44-1.18-1-3.13l.17-.85-1.7.14c-3 .26-3.67.64-3.16 1.76.33.71 1.46.76 2.29.11l.57-.52-.3.87a3.41 3.41 0 0 1 -1.55 2.13 1.72 1.72 0 0 1 -2-.17zm15.73-3.82c.17-.16-.65-1.42-1.06-1.64a2.58 2.58 0 0 0 -1.13-.17c-.59.06-.71.17-.77.7-.09.75.13 1 1.08 1.22a3 3 0 0 0 1.88-.08zm3.93-.24c.18-.16-.7-1.82-1-1.82a6.3 6.3 0 0 0 -1.8 2 9.4 9.4 0 0 0 2.8-.13zm103.2 2.89a1.11 1.11 0 0 1 .3-1.54c.4-.27.51-.26.81 0a1.06 1.06 0 0 1 .06 1.5l-.13.12c-.56.3-.78.28-1.09-.09zm-50-.56a2.52 2.52 0 0 0 -1.25-.08 1.59 1.59 0 0 1 -1.36-.25c-.54-.48-.57-1.75-.07-2.79s.31-1.38-1.16-1.55c-2.86-.33-3.6-.8-3.28-2.06.37-1.44.37-1.44.89-.8.37.46.77.64 1.78.8 1.88.31 3 .26 3.55-.13.27-.19.55-.3.62-.23a5 5 0 0 1 -.15 1.53c-.42 2.23-.37 4 .14 4.65.88 1.13.93 1.29.34.91zm-31.28-.52s.15-.5.34-1a4.41 4.41 0 0 0 -.45-3.76c-.86-1.47-.73-1.61 2-2.17a8.56 8.56 0 0 0 5-2.69c1.69-1.63 2.3-2.53 2.68-3.93.23-.85.27-.9.28-.33a1.05 1.05 0 0 0 .67 1 2.51 2.51 0 0 1 .9.93c.36.79-.18 1.46-2.38 2.93-2.75 1.84-3 2.14-3 3.77v1.36l-.76-.73c-.63-.67-.77-.72-1.84-.66s-1.16.07-1.23.83.07.89.71 1.51c1.24 1.2 1 2.18-.63 2.18a3.66 3.66 0 0 0 -1.59.43c-.39.24-.7.4-.7.35zm17.3-.28c-1.63-.07-1.9-.13-1.79-.42s.05-.3-.25-.16a31.68 31.68 0 0 1 -4.46.25l-4.07.07-.54-.55c-.65-.65-.67-.94-.09-1.63.42-.51.47-.51 1.81-.27 1.62.3 5.53.33 6 0a2 2 0 0 0 .44-1.11l.12-.92.7.58a2.81 2.81 0 0 1 .83 1.23l.14.64h2c1.85 0 2.06 0 2.28-.46a2 2 0 0 0 .16-1.08 1.67 1.67 0 0 1 0-.63 7.6 7.6 0 0 1 .83.67 1.67 1.67 0 0 1 .77 1.62 2.11 2.11 0 0 1 -.5 1.52c-.56.65-1.17.74-4.36.6zm-78.87-2.34c-.33-.5-.33-.58 0-1.08.43-.66.65-.68 1.22-.11s.53.72.21 1.32-1 .51-1.43-.13zm89.09-5.76c-.76-.84.25-2.22 1.11-1.51a1.11 1.11 0 0 1 -.06 1.57c-.51.44-.54.44-1-.09z"/><path d="m58.5 199.4a11.05 11.05 0 0 1 -1.5-.4l-.57-.23.34-1.29c.2-.73.47-1.29.63-1.29a.29.29 0 0 1 .28.29c0 .39 1.07 1.38 1.81 1.65a6.08 6.08 0 0 0 3.51-.13 2 2 0 0 0 1.09-2.61c-.34-.8-.22-.73-4.72-2.74a7.18 7.18 0 0 1 -1.84-1.29 2.56 2.56 0 0 1 -.9-2.13c-.17-2.29 1.11-3.79 3.86-4.49a8.47 8.47 0 0 1 5.17.35c.83.36.91.46.71.84a9.88 9.88 0 0 0 -.45 1l-.23.6-.63-.69a3.27 3.27 0 0 0 -2.86-1.13c-2.66 0-3.7 2.27-1.65 3.61a18.64 18.64 0 0 0 2.45 1.18c2.84 1.12 4.07 2.18 4.32 3.74.31 1.93-1 3.88-3.3 4.72a12.14 12.14 0 0 1 -5.52.44zm92.12.09c-.3-.06-1-.25-1.55-.43l-1-.32.38-1.23a3.35 3.35 0 0 1 .58-1.29c.1 0 .38.26.62.65a3.54 3.54 0 0 0 3.28 1.45c2.18 0 3.53-1.31 2.94-2.86-.28-.74-.83-1.1-3.34-2.18-2.18-.93-3.23-1.62-3.8-2.5a3.86 3.86 0 0 1 -.19-3.41 5.76 5.76 0 0 1 3-2.5 8.7 8.7 0 0 1 4.72-.14c1.91.48 2 .59 1.58 1.71-.19.5-.37.95-.4 1s-.38-.26-.78-.68a3.6 3.6 0 0 0 -3.38-1c-1.29.15-2.34 1.18-2.11 2.09s1 1.48 3.57 2.63 3.57 1.84 4.06 3c.93 2.18-.38 4.45-3.19 5.52a13.62 13.62 0 0 1 -5 .49zm72 0c-3.44-.53-6.06-2.19-7.09-4.48a5.74 5.74 0 0 1 -.49-2.77c0-3.56 2.06-6 6-7.2 2.56-.78 7.38-.64 9.14.27.29.15.31.33.12 1.16-.25 1.08-.51 1.22-1.09.58a5.81 5.81 0 0 0 -1.49-.9 7.34 7.34 0 0 0 -5.3.18 6.32 6.32 0 0 0 -2.81 3.36 8.75 8.75 0 0 0 .43 5.9 6.18 6.18 0 0 0 3.5 2.55 8.9 8.9 0 0 0 5.5-.63 4.62 4.62 0 0 1 1.34-.55 7.62 7.62 0 0 1 -.24.94c-.23.75-.35.85-1.5 1.17a22.37 22.37 0 0 1 -6 .42zm-148-6.28-5.26-8.21 4.26-.22 4 6.41 3.93-6.3 2.13.08-5.25 7.85.17 6.4h-4.25zm12-1.21v-7.22h4.13a47 47 0 0 1 4.89.19 3.54 3.54 0 0 1 3 3.24c0 1.7-1.09 3-3.09 3.61-.45.14-.82.34-.82.43a62.16 62.16 0 0 0 3.89 5.23c1.56 1.93 1.66 1.73-.88 1.73h-2.22l-2.38-3.42-2.38-3.42-.06 3.42-.06 3.42h-4zm6.83-.7c1-.5 1.39-1.45 1.28-3-.13-1.8-.58-2.2-2.57-2.31l-1.52-.09v6l1.08-.13a6.13 6.13 0 0 0 1.73-.5zm9.36-6.38 4-.14v14.44h-4zm7 14.3 7.19-14.58h1.91l7.1 14.55h-4.25l-1.85-4.34h-5.91l-1.83 4.32zm9.54-5.59-2.35-4.81-2.45 4.8zm9.9-8.74h2.29l11.18 10 .11-10 2 .12-.34 14.21h-1l-12.46-10v10h-2.21l.46-14.33zm33 0h4v6.51l6.71-6.62 2.13.54-6 5.5 6.78 8.4h-4.5l-5.06-6.35-.15 6.35h-4zm21.88-.11 1.88-.13 6.99 14.35-4.2.16-1.8-4.16h-6.29l-1.71 4.19h-2.25zm2.2 8.8-2.33-4.81-2.51 4.88zm16.62-8.8h10l-.16 1.69-5.81-.26v4.79l5.87-.17v1.71l-5.9-.3.14 7h-4z"/><path d="m179.21 249.35c2.18-2.16 2.29-2.32 4-5.72 1.53-3 3.86-7.28 5.45-9.9l.48-.8-1.24-.15a29.49 29.49 0 0 0 -3.76-.05l-2.52.11 1-.84c1-.83 1-.84 2.73-.84 1 0 3.11-.07 4.75-.15l3-.14-1.23 1.91a101.87 101.87 0 0 0 -5.32 9.38 18.22 18.22 0 0 1 -6.21 7.62 16.32 16.32 0 0 1 -3.25 1.85 29.73 29.73 0 0 1 2.12-2.23z"/><path d="m160.42 239.23a18.85 18.85 0 1 1 -18.85-18.85 18.85 18.85 0 0 1 18.85 18.85z" fill="#fff" stroke="#000" stroke-linecap="round" stroke-linejoin="round" stroke-width=".19"/><path d="m137.26 257.56a22.34 22.34 0 0 1 -3.17-1.08l-1.52-.68.57-.61a7.38 7.38 0 0 0 1-1.35l.4-.75-1.27-2.58-1.27-2.58-2.06-.86-2.07-.87-1.3.46c-.72.24-1.45.5-1.63.57-.58.23-1.82-3.63-2.09-6.54-.15-1.66.08-5.07.33-4.68a4.52 4.52 0 0 0 1.62.59l1.47.34 2-1.88 2-1.88.39-2.46.4-2.47-.92-.82c-1.46-1.33-1.68-1.45-2.1-1.15-.21.15.12-.2.71-.76a19.05 19.05 0 0 1 10.25-4.94c.6-.06.92-.07.71 0s-.38.35-.37 1.87v1.77l2.1 1.28 2.11 1.27 1.63-.14c3.5-.29 3.3-.2 4.37-1.92.53-.85 1-1.68 1.07-1.83.16-.42 2.85 1.44 4.48 3.09a18.86 18.86 0 0 1 3.19 4.24c.5.86.53 1 .2 1a10.43 10.43 0 0 0 -1.79.67l-1.42.63-.48 2.48-.49 2.48 1.36 2.22c1.49 2.45 1.68 2.58 3.74 2.41l1-.07-.13.76a20.07 20.07 0 0 1 -4.83 9.3c-1.89 1.83-.23.92-1.68-.37l-1-.89h-5.67l-1.66 1.79-1.66 1.79.15 1.63a4.57 4.57 0 0 0 .39 1.79 8.61 8.61 0 0 1 -2.58.15 18.75 18.75 0 0 1 -4.48-.42zm7.9-4.91a12.59 12.59 0 0 0 1.64-1.93 10.6 10.6 0 0 0 -.87-2.44l-.93-2.16-4.5-.6-4.5-.61-1 .88c-.58.48-1.38 1.22-1.78 1.64l-.74.77 1.06 2.32a10.91 10.91 0 0 0 1.35 2.43c.35.13 7.59 1.31 8.25 1.33.34 0 1-.48 2.06-1.63zm9.3-6.38c2.09-3.76 2.33-4.29 2.08-4.67l-2.42-4a44.7 44.7 0 0 0 -4.75.61c-.05 0-1 1.88-2.08 4.08l-2 4 .94 2.15.93 2.15 2.47-.06 2.47-.06zm-20.51.18 1.68-1.5a58.91 58.91 0 0 0 -.94-8.79 18.53 18.53 0 0 0 -4.33-2.71 20.18 20.18 0 0 0 -2 1.7l-1.84 1.71.62 4.49a29.29 29.29 0 0 0 .86 4.65 37.46 37.46 0 0 0 4.18 1.78 8 8 0 0 0 1.74-1.33zm18.3-8.86a4.33 4.33 0 0 0 1.76-.45 26 26 0 0 0 .85-4.71c-.05-.12-1.43-1.52-3.06-3.09l-3-2.87-2.58.26-2.59.27-.25 1.89c-.39 3-.57 2.6 2.82 6 2.83 2.83 3.13 3.07 3.75 3l2.28-.29zm-13.23-4 3.8-2 .3-2.12a12.17 12.17 0 0 0 .18-2.41 11.21 11.21 0 0 0 -2.11-1.5l-2-1.22-4 2-4 2-.26 1.53a19.12 19.12 0 0 0 -.28 2.5v1l2 1.14a12.14 12.14 0 0 0 2.28 1.14 38.28 38.28 0 0 0 4.13-2zm27 16.1c2.18-2.17 2.29-2.33 4-5.73 1.53-3 3.86-7.28 5.45-9.9l.48-.8-1.24-.15a29.48 29.48 0 0 0 -3.76 0l-2.52.11 1-.84c1-.83 1-.85 2.74-.85 1 0 3.1-.06 4.74-.14l3-.14-1.23 1.91a101.7 101.7 0 0 0 -5.32 9.37 22.82 22.82 0 0 1 -1.52 2.79 23.2 23.2 0 0 1 -4.66 4.78 15.15 15.15 0 0 1 -3.25 1.85 27.79 27.79 0 0 1 2.12-2.22zm-64 1.15c-2.06-.41-2.27-1.19-.6-2.26l1.13-.73.58.61c2.26 2.42 6.31.65 8.35-3.64a9.49 9.49 0 0 0 .71-1.71 8.11 8.11 0 0 0 -1.45.78c-2.72 1.65-4.75 1.35-5.91-.88a6.65 6.65 0 0 1 0-4.63c.57-2.13 2.83-4.43 5.82-5.93 1.22-.62 1.67-.74 2.27-.63a3 3 0 0 1 2.67 2.22 5.5 5.5 0 0 1 .66 3.08c0 4-1.61 7-5.4 10.65a10.25 10.25 0 0 1 -5.74 3 6.43 6.43 0 0 1 -3 .07zm8.3-8.28c1.83-.51 3-2.46 3-4.91s-1.21-3.89-2.9-3.69a3.18 3.18 0 0 0 -2.49 1.78c-1.46 2.49-1 6.23.77 6.9.5.18.69.17 1.57-.08z"/><path d="m95.25 245.51c.08-.27.84-2.15 1.68-4.18 1.62-3.93 2.34-5.86 2.34-6.33s-.85 0-2.69 1.07c-1 .57-1.09.59-1.45.25-.6-.54-.32-.88 1.39-1.7a49.51 49.51 0 0 1 6-2.31c.12 0 0 .57-.29 1.25a85.92 85.92 0 0 0 -3.7 11.84c-.12.59-.15.6-1.76.6s-1.64 0-1.5-.49z"/></g></svg>